<svg width="24" height="24" viewBox="0 0 24 24" fill="none" xmlns="http://www.w3.org/2000/svg">
<path fill-rule="evenodd" clip-rule="evenodd" d="M8.37915 11.4561C8.07875 11.7565 8.07875 12.2435 8.37915 12.5439L11.4561 15.6209C11.7565 15.9213 12.2435 15.9213 12.5439 15.6209L15.6209 12.5439C15.9213 12.2435 15.9213 11.7565 15.6209 11.4561C15.3204 11.1557 14.8334 11.1557 14.533 11.4561L12.7692 13.2198L12.7692 2.76923C12.7692 2.3444 12.4248 2 12 2C11.5752 2 11.2308 2.3444 11.2308 2.76923L11.2308 13.2198L9.46701 11.4561C9.1666 11.1557 8.67955 11.1557 8.37915 11.4561Z" fill="white"/>
<path fill-rule="evenodd" clip-rule="evenodd" d="M6.8718 22C4.18118 22 2 19.8188 2 17.1282L2 13.0256C2 10.335 4.18118 8.15385 6.8718 8.15385H7.38462C7.80945 8.15385 8.15385 8.49824 8.15385 8.92308C8.15385 9.34791 7.80945 9.69231 7.38462 9.69231H6.8718C5.03085 9.69231 3.53846 11.1847 3.53846 13.0256L3.53846 17.1282C3.53846 18.9692 5.03085 20.4615 6.8718 20.4615L17.1282 20.4615C18.9692 20.4615 20.4615 18.9692 20.4615 17.1282V13.0256C20.4615 11.1847 18.9692 9.69231 17.1282 9.69231H16.6154C16.1906 9.69231 15.8462 9.34791 15.8462 8.92308C15.8462 8.49824 16.1906 8.15385 16.6154 8.15385H17.1282C19.8188 8.15385 22 10.335 22 13.0256V17.1282C22 19.8188 19.8188 22 17.1282 22L6.8718 22Z" fill="white"/>
</svg>
