<svg width="382" height="40" viewBox="0 0 382 40" fill="none" xmlns="http://www.w3.org/2000/svg">
<path fill-rule="evenodd" clip-rule="evenodd" d="M22.7827 0.107946C27.6678 2.72337 32.5434 5.34315 37.4237 7.95858C38.916 8.75496 39.9765 10.4696 39.9812 11.9579L40 27.4807C40 29.191 38.8034 31.4931 37.2501 32.1937C32.4777 34.7482 27.7006 37.2984 22.9282 39.8529C22.5293 40.0705 22.2055 40.0705 22.2055 39.483V34.5002C22.2055 34.3305 22.229 34.2347 22.4308 34.1259C26.3538 32.0284 30.2722 29.9264 34.1952 27.8289C34.3078 27.781 34.3876 27.6722 34.3876 27.5504V12.5019C34.3876 12.3974 34.3266 12.293 34.2234 12.2364L30.3942 10.1867C30.1408 10.0518 29.8874 9.97782 29.8874 10.4086V25.0524C29.8874 25.2091 29.7841 25.3919 29.6574 25.4615L22.4449 29.3215C22.3182 29.3912 22.2149 29.3172 22.2149 29.1605V28.2989V22.8809C22.2149 22.746 22.0929 22.6328 21.9474 22.6328C20.6523 22.6328 19.3618 22.6328 18.0666 22.6328C17.9212 22.6328 17.7992 22.746 17.7992 22.8809C17.7992 28.4686 17.7992 34.0563 17.7992 39.644C17.7992 40.1227 17.4519 40.0226 17.222 39.8921C12.3369 37.2766 7.46129 34.6568 2.58095 32.0414C1.08869 31.245 0.0281558 29.5304 0.0234632 28.0421L0 12.5236C0 10.8134 1.19662 8.51126 2.74988 7.81062C7.52229 5.25612 12.2994 2.70597 17.0718 0.151464C17.4707 -0.0661259 17.7945 -0.0661259 17.7945 0.521366V5.49982C17.7945 5.66954 17.771 5.76528 17.5692 5.87407C13.6462 7.97164 9.72783 10.0736 5.80479 12.1711C5.69216 12.219 5.61239 12.3278 5.61239 12.4496V27.4981C5.61239 27.6026 5.67339 27.707 5.77663 27.7636L9.60582 29.8133C9.85922 29.9482 10.1126 30.0222 10.1126 29.5914V14.9563C10.1126 14.7996 10.2159 14.6168 10.3426 14.5472L17.5551 10.6872C17.6818 10.6175 17.7851 10.6915 17.7851 10.8482C17.7851 12.937 17.7851 15.0303 17.7851 17.1191C17.7851 17.254 17.9071 17.3672 18.0526 17.3672C19.3477 17.3672 20.6382 17.3672 21.9334 17.3672C22.0788 17.3672 22.2008 17.254 22.2008 17.1191C22.2008 11.5314 22.2008 5.9437 22.2008 0.355998C22.2055 -0.122699 22.5528 -0.022608 22.7827 0.107946Z" fill="white"/>
<path fill-rule="evenodd" clip-rule="evenodd" d="M346 9.05263C346 7.91899 346.934 7 348.087 7H375.913C377.066 7 378 7.91899 378 9.05263C378 10.1863 377.066 11.1053 375.913 11.1053H348.087C346.934 11.1053 346 10.1863 346 9.05263ZM346 20C346 18.8664 346.934 17.9474 348.087 17.9474H375.913C377.066 17.9474 378 18.8664 378 20C378 21.1336 377.066 22.0526 375.913 22.0526H348.087C346.934 22.0526 346 21.1336 346 20ZM346 30.9474C346 29.8137 346.934 28.8947 348.087 28.8947H375.913C377.066 28.8947 378 29.8137 378 30.9474C378 32.081 377.066 33 375.913 33H348.087C346.934 33 346 32.081 346 30.9474Z" fill="white"/>
</svg>
