<svg width="240" height="240" viewBox="0 0 240 240" fill="none" xmlns="http://www.w3.org/2000/svg">
<path fill-rule="evenodd" clip-rule="evenodd" d="M136.696 0.647675C166.007 16.3402 195.26 32.0589 224.542 47.7515C233.496 52.5298 239.859 62.8174 239.887 71.7473L240 164.884C240 175.146 232.82 188.959 223.501 193.162C194.866 208.489 166.204 223.79 137.569 239.117C135.176 240.423 133.233 240.423 133.233 236.898V207.001C133.233 205.983 133.374 205.408 134.585 204.756C158.123 192.17 181.633 179.559 205.171 166.973C205.847 166.686 206.326 166.033 206.326 165.302V75.0111C206.326 74.3845 205.96 73.7578 205.34 73.4184L182.365 61.1202C180.845 60.3108 179.324 59.8669 179.324 62.4519V150.315C179.324 151.255 178.705 152.351 177.945 152.769L134.669 175.929C133.909 176.347 133.29 175.903 133.29 174.963V169.793V137.285C133.29 136.476 132.557 135.797 131.685 135.797C123.914 135.797 116.171 135.797 108.4 135.797C107.527 135.797 106.795 136.476 106.795 137.285C106.795 170.812 106.795 204.338 106.795 237.864C106.795 240.736 104.711 240.136 103.332 239.352C74.0216 223.66 44.7677 207.941 15.4857 192.248C6.53214 187.47 0.168935 177.183 0.140779 168.253L0 75.1417C0 64.8802 7.17973 51.0676 16.4993 46.8637C45.1337 31.5367 73.7963 16.2358 102.431 0.908783C104.824 -0.396755 106.767 -0.396756 106.767 3.1282V32.9989C106.767 34.0172 106.626 34.5917 105.415 35.2444C81.8771 47.8298 58.367 60.4413 34.8287 73.0267C34.153 73.3139 33.6743 73.9667 33.6743 74.6978V164.989C33.6743 165.616 34.0404 166.242 34.6598 166.582L57.6349 178.88C59.1553 179.689 60.6757 180.133 60.6757 177.548V89.7376C60.6757 88.7976 61.2952 87.701 62.0554 87.2832L105.331 64.123C106.091 63.7052 106.71 64.1491 106.71 65.0891C106.71 77.6222 106.71 90.1815 106.71 102.715C106.71 103.524 107.443 104.203 108.315 104.203C116.086 104.203 123.829 104.203 131.6 104.203C132.473 104.203 133.205 103.524 133.205 102.715C133.205 69.1884 133.205 35.6622 133.205 2.13599C133.233 -0.736196 135.317 -0.135648 136.696 0.647675Z" fill="white"/>
</svg>
