<svg width="48" height="48" viewBox="0 0 48 48" fill="none" xmlns="http://www.w3.org/2000/svg">
<path fill-rule="evenodd" clip-rule="evenodd" d="M27.3393 0.129535C33.2013 3.26805 39.0521 6.41179 44.9085 9.5503C46.6992 10.506 47.9718 12.5635 47.9775 14.3495L48 32.9769C48 35.0292 46.5641 37.7917 44.7001 38.6325C38.9733 41.6979 33.2407 44.7581 27.5138 47.8235C27.0352 48.0846 26.6466 48.0846 26.6466 47.3796V41.4002C26.6466 41.1965 26.6748 41.0817 26.9169 40.9511C31.6246 38.434 36.3266 35.9117 41.0343 33.3947C41.1694 33.3372 41.2651 33.2067 41.2651 33.0604V15.0022C41.2651 14.8769 41.1919 14.7516 41.068 14.6837L36.473 12.224C36.1689 12.0622 35.8649 11.9734 35.8649 12.4904V30.0629C35.8649 30.2509 35.741 30.4702 35.5889 30.5538L26.9338 35.1859C26.7818 35.2694 26.6579 35.1806 26.6579 34.9926V33.9586V27.4571C26.6579 27.2952 26.5115 27.1594 26.3369 27.1594C24.7827 27.1594 23.2342 27.1594 21.68 27.1594C21.5054 27.1594 21.359 27.2952 21.359 27.4571C21.359 34.1623 21.359 40.8676 21.359 47.5728C21.359 48.1472 20.9423 48.0271 20.6664 47.8705C14.8043 44.7319 8.95354 41.5882 3.09714 38.4497C1.30643 37.494 0.033787 35.4365 0.0281558 33.6505L0 15.0283C0 12.976 1.43595 10.2135 3.29986 9.37275C9.02675 6.30734 14.7593 3.24716 20.4862 0.181757C20.9648 -0.0793511 21.3534 -0.0793511 21.3534 0.62564V6.59978C21.3534 6.80345 21.3252 6.91833 21.0831 7.04889C16.3754 9.56597 11.6734 12.0883 6.96574 14.6053C6.8306 14.6628 6.73487 14.7933 6.73487 14.9396V32.9978C6.73487 33.1231 6.80807 33.2484 6.93196 33.3163L11.527 35.776C11.8311 35.9378 12.1351 36.0266 12.1351 35.5096V17.9475C12.1351 17.7595 12.259 17.5402 12.4111 17.4566L21.0662 12.8246C21.2182 12.741 21.3421 12.8298 21.3421 13.0178C21.3421 15.5244 21.3421 18.0363 21.3421 20.5429C21.3421 20.7048 21.4885 20.8406 21.6631 20.8406C23.2173 20.8406 24.7658 20.8406 26.32 20.8406C26.4946 20.8406 26.641 20.7048 26.641 20.5429C26.641 13.8377 26.641 7.13244 26.641 0.427198C26.6466 -0.147239 27.0633 -0.0271296 27.3393 0.129535Z" fill="white"/>
</svg>
