<svg width="351" height="72" viewBox="0 0 351 72" fill="none" xmlns="http://www.w3.org/2000/svg">
<path d="M0 71.0159V3.83781H26.4711C31.56 3.83781 35.8954 4.81094 39.4773 6.75718C43.0592 8.68155 45.7893 11.3604 47.6677 14.7936C49.5678 18.205 50.5179 22.1412 50.5179 26.6023C50.5179 31.0633 49.5569 34.9995 47.6349 38.4109C45.7129 41.8223 42.9282 44.4793 39.2808 46.3818C35.6552 48.2843 31.2652 49.2355 26.1107 49.2355H9.23868V37.8533H23.8174C26.5476 37.8533 28.7972 37.3831 30.5663 36.4428C32.3572 35.4806 33.6895 34.1576 34.5631 32.4738C35.4586 30.7681 35.9064 28.8109 35.9064 26.6023C35.9064 24.3718 35.4586 22.4255 34.5631 20.7636C33.6895 19.0797 32.3572 17.7786 30.5663 16.8601C28.7753 15.9198 26.5039 15.4497 23.7519 15.4497H14.1856V71.0159H0Z" fill="#333333"/>
<path d="M75.4396 72C70.3507 72 65.9498 70.9175 62.2368 68.7526C58.5457 66.5658 55.6955 63.5262 53.6862 59.6337C51.6768 55.7194 50.6721 51.1818 50.6721 46.021C50.6721 40.8164 51.6768 36.2679 53.6862 32.3754C55.6955 28.4611 58.5457 25.4214 62.2368 23.2565C65.9498 21.0697 70.3507 19.9763 75.4396 19.9763C80.5286 19.9763 84.9186 21.0697 88.6097 23.2565C92.3226 25.4214 95.1838 28.4611 97.1931 32.3754C99.2025 36.2679 100.207 40.8164 100.207 46.021C100.207 51.1818 99.2025 55.7194 97.1931 59.6337C95.1838 63.5262 92.3226 66.5658 88.6097 68.7526C84.9186 70.9175 80.5286 72 75.4396 72ZM75.5052 61.1754C77.8203 61.1754 79.7532 60.5194 81.3039 59.2073C82.8546 57.8733 84.0231 56.0583 84.8094 53.7622C85.6175 51.4661 86.0215 48.8528 86.0215 45.9226C86.0215 42.9923 85.6175 40.379 84.8094 38.0829C84.0231 35.7868 82.8546 33.9718 81.3039 32.6378C79.7532 31.3039 77.8203 30.6369 75.5052 30.6369C73.1682 30.6369 71.2025 31.3039 69.6081 32.6378C68.0356 33.9718 66.8453 35.7868 66.0372 38.0829C65.2509 40.379 64.8577 42.9923 64.8577 45.9226C64.8577 48.8528 65.2509 51.4661 66.0372 53.7622C66.8453 56.0583 68.0356 57.8733 69.6081 59.2073C71.2025 60.5194 73.1682 61.1754 75.5052 61.1754Z" fill="#333333"/>
<path d="M103.326 71.0159V20.6323H116.857V29.4232H117.381C118.298 26.2961 119.838 23.9344 122 22.338C124.162 20.7198 126.652 19.9107 129.47 19.9107C130.169 19.9107 130.922 19.9544 131.73 20.0419C132.538 20.1294 133.248 20.2497 133.86 20.4027V32.8018C133.205 32.605 132.298 32.4301 131.141 32.277C129.983 32.1239 128.924 32.0474 127.963 32.0474C125.91 32.0474 124.075 32.4957 122.459 33.3923C120.864 34.267 119.598 35.4916 118.659 37.0661C117.741 38.6405 117.283 40.4556 117.283 42.5112V71.0159H103.326Z" fill="#333333"/>
<path d="M164.408 20.6323V31.1289H134.104V20.6323H164.408ZM140.984 8.56128H154.94V55.5335C154.94 56.8237 155.137 57.8296 155.53 58.5513C155.923 59.251 156.469 59.7431 157.168 60.0273C157.889 60.3116 158.719 60.4538 159.658 60.4538C160.313 60.4538 160.968 60.3991 161.624 60.2898C162.279 60.1585 162.781 60.0601 163.131 59.9945L165.326 70.3927C164.627 70.6114 163.644 70.8629 162.377 71.1472C161.11 71.4533 159.571 71.6392 157.758 71.7048C154.394 71.836 151.446 71.3877 148.912 70.3599C146.401 69.3321 144.446 67.7358 143.048 65.5708C141.65 63.4059 140.962 60.6724 140.984 57.3704V8.56128Z" fill="#333333"/>
<path d="M194.605 20.6323V31.1289H163.547V20.6323H194.605ZM170.656 71.0159V16.9913C170.656 13.3394 171.366 10.3107 172.786 7.90524C174.227 5.49977 176.193 3.69567 178.683 2.49294C181.173 1.2902 184.001 0.688837 187.168 0.688837C189.308 0.688837 191.263 0.852848 193.032 1.18087C194.823 1.50889 196.155 1.8041 197.029 2.06652L194.539 12.5631C193.993 12.3882 193.316 12.2241 192.508 12.0711C191.722 11.918 190.914 11.8415 190.084 11.8415C188.031 11.8415 186.6 12.3226 185.792 13.2847C184.984 14.2251 184.58 15.5481 184.58 17.2538V71.0159H170.656Z" fill="#333333"/>
<path d="M218.109 72C213.021 72 208.62 70.9175 204.907 68.7526C201.216 66.5658 198.365 63.5262 196.356 59.6337C194.347 55.7194 193.342 51.1818 193.342 46.021C193.342 40.8164 194.347 36.2679 196.356 32.3754C198.365 28.4611 201.216 25.4214 204.907 23.2565C208.62 21.0697 213.021 19.9763 218.109 19.9763C223.198 19.9763 227.588 21.0697 231.279 23.2565C234.992 25.4214 237.854 28.4611 239.863 32.3754C241.872 36.2679 242.877 40.8164 242.877 46.021C242.877 51.1818 241.872 55.7194 239.863 59.6337C237.854 63.5262 234.992 66.5658 231.279 68.7526C227.588 70.9175 223.198 72 218.109 72ZM218.175 61.1754C220.49 61.1754 222.423 60.5194 223.974 59.2073C225.524 57.8733 226.693 56.0583 227.479 53.7622C228.287 51.4661 228.691 48.8528 228.691 45.9226C228.691 42.9923 228.287 40.379 227.479 38.0829C226.693 35.7868 225.524 33.9718 223.974 32.6378C222.423 31.3039 220.49 30.6369 218.175 30.6369C215.838 30.6369 213.872 31.3039 212.278 32.6378C210.705 33.9718 209.515 35.7868 208.707 38.0829C207.921 40.379 207.528 42.9923 207.528 45.9226C207.528 48.8528 207.921 51.4661 208.707 53.7622C209.515 56.0583 210.705 57.8733 212.278 59.2073C213.872 60.5194 215.838 61.1754 218.175 61.1754Z" fill="#333333"/>
<path d="M259.952 3.83781V71.0159H245.996V3.83781H259.952Z" fill="#333333"/>
<path d="M265.176 71.0159V20.6323H279.133V71.0159H265.176ZM272.187 14.1376C270.112 14.1376 268.332 13.4487 266.847 12.0711C265.384 10.6715 264.652 8.99863 264.652 7.05239C264.652 5.12802 265.384 3.47699 266.847 2.09932C268.332 0.699773 270.112 0 272.187 0C274.262 0 276.031 0.699773 277.495 2.09932C278.98 3.47699 279.722 5.12802 279.722 7.05239C279.722 8.99863 278.98 10.6715 277.495 12.0711C276.031 13.4487 274.262 14.1376 272.187 14.1376Z" fill="#333333"/>
<path d="M307.093 72C302.004 72 297.603 70.9175 293.89 68.7526C290.199 66.5658 287.349 63.5262 285.34 59.6337C283.33 55.7194 282.326 51.1818 282.326 46.021C282.326 40.8164 283.33 36.2679 285.34 32.3754C287.349 28.4611 290.199 25.4214 293.89 23.2565C297.603 21.0697 302.004 19.9763 307.093 19.9763C312.182 19.9763 316.572 21.0697 320.263 23.2565C323.976 25.4214 326.837 28.4611 328.847 32.3754C330.856 36.2679 331.861 40.8164 331.861 46.021C331.861 51.1818 330.856 55.7194 328.847 59.6337C326.837 63.5262 323.976 66.5658 320.263 68.7526C316.572 70.9175 312.182 72 307.093 72ZM307.159 61.1754C309.474 61.1754 311.407 60.5194 312.957 59.2073C314.508 57.8733 315.677 56.0583 316.463 53.7622C317.271 51.4661 317.675 48.8528 317.675 45.9226C317.675 42.9923 317.271 40.379 316.463 38.0829C315.677 35.7868 314.508 33.9718 312.957 32.6378C311.407 31.3039 309.474 30.6369 307.159 30.6369C304.822 30.6369 302.856 31.3039 301.262 32.6378C299.689 33.9718 298.499 35.7868 297.691 38.0829C296.904 40.379 296.511 42.9923 296.511 45.9226C296.511 48.8528 296.904 51.4661 297.691 53.7622C298.499 56.0583 299.689 57.8733 301.262 59.2073C302.856 60.5194 304.822 61.1754 307.159 61.1754Z" fill="#333333"/>
<path d="M343.137 71.8688C340.975 71.8688 339.119 71.1034 337.568 69.5727C336.039 68.0201 335.275 66.1613 335.275 63.9964C335.275 61.8533 336.039 60.0164 337.568 58.4857C339.119 56.9549 340.975 56.1895 343.137 56.1895C345.234 56.1895 347.069 56.9549 348.641 58.4857C350.214 60.0164 351 61.8533 351 63.9964C351 65.4396 350.629 66.7626 349.886 67.9654C349.165 69.1462 348.215 70.0975 347.036 70.8191C345.857 71.5189 344.557 71.8688 343.137 71.8688Z" fill="#333333"/>
</svg>
