<svg width="312" height="64" viewBox="0 0 312 64" fill="none" xmlns="http://www.w3.org/2000/svg">
<path d="M0 63.1253V3.41139H23.5299C28.0534 3.41139 31.9071 4.27639 35.091 6.00638C38.2749 7.71693 40.7016 10.0981 42.3713 13.1499C44.0603 16.1822 44.9048 19.6811 44.9048 23.6465C44.9048 27.6118 44.0506 31.1107 42.3421 34.1431C40.6337 37.1754 38.1584 39.5371 34.9162 41.2282C31.6935 42.9194 27.7913 43.7649 23.2095 43.7649H8.21216V33.6474H21.1711C23.5978 33.6474 25.5975 33.2295 27.17 32.3936C28.762 31.5383 29.9462 30.3623 30.7228 28.8656C31.5188 27.3494 31.9168 25.6097 31.9168 23.6465C31.9168 21.6638 31.5188 19.9338 30.7228 18.4565C29.9462 16.9598 28.762 15.8032 27.17 14.9868C25.5781 14.151 23.559 13.733 21.1128 13.733H12.6095V63.1253H0Z" fill="#333333"/>
<path d="M67.0575 64C62.534 64 58.622 63.0378 55.3216 61.1134C52.0407 59.1696 49.5071 56.4677 47.721 53.0077C45.9349 49.5283 45.0419 45.4949 45.0419 40.9075C45.0419 36.2812 45.9349 32.2381 47.721 28.7781C49.5071 25.2987 52.0407 22.5968 55.3216 20.6724C58.622 18.7286 62.534 17.7567 67.0575 17.7567C71.5809 17.7567 75.4832 18.7286 78.7642 20.6724C82.0646 22.5968 84.6078 25.2987 86.3939 28.7781C88.18 32.2381 89.073 36.2812 89.073 40.9075C89.073 45.4949 88.18 49.5283 86.3939 53.0077C84.6078 56.4677 82.0646 59.1696 78.7642 61.1134C75.4832 63.0378 71.5809 64 67.0575 64ZM67.1157 54.3781C69.1736 54.3781 70.8917 53.795 72.2701 52.6287C73.6485 51.443 74.6872 49.8296 75.3861 47.7886C76.1044 45.7476 76.4636 43.4248 76.4636 40.82C76.4636 38.2153 76.1044 35.8925 75.3861 33.8515C74.6872 31.8105 73.6485 30.1971 72.2701 29.0114C70.8917 27.8257 69.1736 27.2328 67.1157 27.2328C65.0384 27.2328 63.2911 27.8257 61.8739 29.0114C60.4761 30.1971 59.418 31.8105 58.6997 33.8515C58.0008 35.8925 57.6513 38.2153 57.6513 40.82C57.6513 43.4248 58.0008 45.7476 58.6997 47.7886C59.418 49.8296 60.4761 51.443 61.8739 52.6287C63.2911 53.795 65.0384 54.3781 67.1157 54.3781Z" fill="#333333"/>
<path d="M91.8456 63.1253V18.3399H103.873V26.154H104.339C105.154 23.3743 106.523 21.275 108.445 19.856C110.367 18.4176 112.58 17.6984 115.084 17.6984C115.705 17.6984 116.375 17.7373 117.094 17.815C117.812 17.8928 118.443 17.9997 118.986 18.1358V29.1572C118.404 28.9822 117.598 28.8267 116.569 28.6907C115.54 28.5546 114.599 28.4866 113.745 28.4866C111.92 28.4866 110.289 28.885 108.852 29.682C107.435 30.4595 106.309 31.5481 105.474 32.9476C104.659 34.3472 104.251 35.9605 104.251 37.7877V63.1253H91.8456Z" fill="#333333"/>
<path d="M146.141 18.3399V27.6702H119.204V18.3399H146.141ZM125.319 7.61002H137.725V49.3631C137.725 50.5099 137.899 51.4041 138.249 52.0456C138.598 52.6676 139.084 53.1049 139.705 53.3576C140.346 53.6103 141.083 53.7367 141.918 53.7367C142.501 53.7367 143.083 53.6881 143.665 53.5909C144.248 53.4743 144.694 53.3868 145.005 53.3285L146.956 62.5713C146.335 62.7657 145.461 62.9892 144.335 63.2419C143.209 63.514 141.84 63.6793 140.229 63.7376C137.239 63.8542 134.618 63.4557 132.366 62.5421C130.134 61.6286 128.396 60.2096 127.154 58.2852C125.911 56.3608 125.3 53.9311 125.319 50.9959V7.61002Z" fill="#333333"/>
<path d="M172.982 18.3399V27.6702H145.375V18.3399H172.982ZM151.694 63.1253V15.1034C151.694 11.8573 152.325 9.16507 153.587 7.02688C154.869 4.88869 156.616 3.28504 158.829 2.21594C161.042 1.14685 163.556 0.6123 166.371 0.6123C168.274 0.6123 170.012 0.758087 171.584 1.04966C173.176 1.34123 174.36 1.60365 175.137 1.8369L172.924 11.1672C172.438 11.0117 171.836 10.8659 171.118 10.7298C170.419 10.5938 169.701 10.5257 168.963 10.5257C167.138 10.5257 165.867 10.9534 165.148 11.8087C164.43 12.6445 164.071 13.8205 164.071 15.3367V63.1253H151.694Z" fill="#333333"/>
<path d="M193.875 64C189.352 64 185.44 63.0378 182.139 61.1134C178.858 59.1696 176.325 56.4677 174.539 53.0077C172.753 49.5283 171.859 45.4949 171.859 40.9075C171.859 36.2812 172.753 32.2381 174.539 28.7781C176.325 25.2987 178.858 22.5968 182.139 20.6724C185.44 18.7286 189.352 17.7567 193.875 17.7567C198.399 17.7567 202.301 18.7286 205.582 20.6724C208.882 22.5968 211.425 25.2987 213.211 28.7781C214.998 32.2381 215.891 36.2812 215.891 40.9075C215.891 45.4949 214.998 49.5283 213.211 53.0077C211.425 56.4677 208.882 59.1696 205.582 61.1134C202.301 63.0378 198.399 64 193.875 64ZM193.933 54.3781C195.991 54.3781 197.709 53.795 199.088 52.6287C200.466 51.443 201.505 49.8296 202.204 47.7886C202.922 45.7476 203.281 43.4248 203.281 40.82C203.281 38.2153 202.922 35.8925 202.204 33.8515C201.505 31.8105 200.466 30.1971 199.088 29.0114C197.709 27.8257 195.991 27.2328 193.933 27.2328C191.856 27.2328 190.109 27.8257 188.691 29.0114C187.294 30.1971 186.236 31.8105 185.517 33.8515C184.818 35.8925 184.469 38.2153 184.469 40.82C184.469 43.4248 184.818 45.7476 185.517 47.7886C186.236 49.8296 187.294 51.443 188.691 52.6287C190.109 53.795 191.856 54.3781 193.933 54.3781Z" fill="#333333"/>
<path d="M231.069 3.41139V63.1253H218.663V3.41139H231.069Z" fill="#333333"/>
<path d="M235.712 63.1253V18.3399H248.118V63.1253H235.712ZM241.944 12.5667C240.1 12.5667 238.518 11.9544 237.198 10.7298C235.897 9.4858 235.246 7.99879 235.246 6.26879C235.246 4.55824 235.897 3.09066 237.198 1.86606C238.518 0.622021 240.1 0 241.944 0C243.789 0 245.361 0.622021 246.662 1.86606C247.982 3.09066 248.642 4.55824 248.642 6.26879C248.642 7.99879 247.982 9.4858 246.662 10.7298C245.361 11.9544 243.789 12.5667 241.944 12.5667Z" fill="#333333"/>
<path d="M272.972 64C268.448 64 264.536 63.0378 261.236 61.1134C257.955 59.1696 255.421 56.4677 253.635 53.0077C251.849 49.5283 250.956 45.4949 250.956 40.9075C250.956 36.2812 251.849 32.2381 253.635 28.7781C255.421 25.2987 257.955 22.5968 261.236 20.6724C264.536 18.7286 268.448 17.7567 272.972 17.7567C277.495 17.7567 281.397 18.7286 284.678 20.6724C287.979 22.5968 290.522 25.2987 292.308 28.7781C294.094 32.2381 294.987 36.2812 294.987 40.9075C294.987 45.4949 294.094 49.5283 292.308 53.0077C290.522 56.4677 287.979 59.1696 284.678 61.1134C281.397 63.0378 277.495 64 272.972 64ZM273.03 54.3781C275.088 54.3781 276.806 53.795 278.184 52.6287C279.563 51.443 280.601 49.8296 281.3 47.7886C282.019 45.7476 282.378 43.4248 282.378 40.82C282.378 38.2153 282.019 35.8925 281.3 33.8515C280.601 31.8105 279.563 30.1971 278.184 29.0114C276.806 27.8257 275.088 27.2328 273.03 27.2328C270.953 27.2328 269.205 27.8257 267.788 29.0114C266.39 30.1971 265.332 31.8105 264.614 33.8515C263.915 35.8925 263.565 38.2153 263.565 40.82C263.565 43.4248 263.915 45.7476 264.614 47.7886C265.332 49.8296 266.39 51.443 267.788 52.6287C269.205 53.795 270.953 54.3781 273.03 54.3781Z" fill="#333333"/>
<path d="M305.011 63.8834C303.089 63.8834 301.439 63.203 300.06 61.8424C298.701 60.4623 298.022 58.81 298.022 56.8857C298.022 54.9807 298.701 53.3479 300.06 51.9872C301.439 50.6266 303.089 49.9462 305.011 49.9462C306.875 49.9462 308.505 50.6266 309.903 51.9872C311.301 53.3479 312 54.9807 312 56.8857C312 58.1686 311.67 59.3446 311.01 60.4137C310.369 61.4633 309.525 62.3089 308.476 62.9503C307.428 63.5724 306.273 63.8834 305.011 63.8834Z" fill="#333333"/>
</svg>
